<mxfile host="app.diagrams.net" modified="2023-10-25T08:41:09.165Z" agent="Mozilla/5.0 (Windows NT 10.0; Win64; x64) AppleWebKit/537.36 (KHTML, like Gecko) Chrome/117.0.0.0 Safari/537.36" etag="WWVTnDODCHbmNwEWxd0W" version="21.6.2" type="github">
  <diagram id="prtHgNgQTEPvFCAcTncT" name="Page-1">
    <mxGraphModel dx="2261" dy="1919" grid="1" gridSize="10" guides="1" tooltips="1" connect="1" arrows="1" fold="1" page="1" pageScale="1" pageWidth="827" pageHeight="1169" math="0" shadow="0">
      <root>
        <mxCell id="0" />
        <mxCell id="1" parent="0" />
        <mxCell id="ku3lEbieTSQeBnIbeFAv-19" value="" style="rounded=1;whiteSpace=wrap;html=1;fontSize=20;fillColor=#f8cecc;strokeColor=#b85450;" parent="1" vertex="1">
          <mxGeometry x="229" y="1826" width="805" height="120" as="geometry" />
        </mxCell>
        <mxCell id="IRRv_QjYVV9mL1Gj15er-1" value="" style="rounded=1;whiteSpace=wrap;html=1;" parent="1" vertex="1">
          <mxGeometry x="10" y="480" width="784" height="60" as="geometry" />
        </mxCell>
        <mxCell id="IRRv_QjYVV9mL1Gj15er-2" value="&lt;span style=&quot;font-size: 18px;&quot;&gt;SDP客户端&lt;/span&gt;" style="text;html=1;align=center;verticalAlign=middle;resizable=0;points=[];autosize=1;strokeColor=none;fillColor=none;" parent="1" vertex="1">
          <mxGeometry x="15" y="490" width="110" height="40" as="geometry" />
        </mxCell>
        <mxCell id="IRRv_QjYVV9mL1Gj15er-3" value="服务器" style="rounded=1;whiteSpace=wrap;html=1;fontSize=18;" parent="1" vertex="1">
          <mxGeometry x="390" y="490" width="100" height="40" as="geometry" />
        </mxCell>
        <mxCell id="IRRv_QjYVV9mL1Gj15er-4" value="&lt;span style=&quot;color: rgb(51, 51, 51); font-family: Arial, sans-serif; text-align: justify; background-color: rgb(255, 255, 255);&quot;&gt;&lt;font style=&quot;font-size: 20px;&quot;&gt;台式机&lt;/font&gt;&lt;/span&gt;" style="rounded=1;whiteSpace=wrap;html=1;fontSize=18;" parent="1" vertex="1">
          <mxGeometry x="260" y="490" width="100" height="40" as="geometry" />
        </mxCell>
        <mxCell id="IRRv_QjYVV9mL1Gj15er-5" value="&lt;span style=&quot;color: rgb(51, 51, 51); font-family: Arial, sans-serif; text-align: justify; background-color: rgb(255, 255, 255);&quot;&gt;&lt;font style=&quot;font-size: 20px;&quot;&gt;笔记本电脑&lt;/font&gt;&lt;/span&gt;" style="rounded=1;whiteSpace=wrap;html=1;fontSize=18;" parent="1" vertex="1">
          <mxGeometry x="114" y="490" width="126" height="40" as="geometry" />
        </mxCell>
        <mxCell id="IRRv_QjYVV9mL1Gj15er-6" value="&lt;span style=&quot;color: rgb(51, 51, 51); font-family: Arial, sans-serif; text-align: justify; background-color: rgb(255, 255, 255);&quot;&gt;&lt;font style=&quot;font-size: 20px;&quot;&gt;云实例&lt;/font&gt;&lt;/span&gt;" style="rounded=1;whiteSpace=wrap;html=1;fontSize=18;" parent="1" vertex="1">
          <mxGeometry x="510" y="490" width="100" height="40" as="geometry" />
        </mxCell>
        <mxCell id="IRRv_QjYVV9mL1Gj15er-8" value="&lt;span style=&quot;color: rgb(51, 51, 51); font-family: Arial, sans-serif; text-align: justify; background-color: rgb(255, 255, 255);&quot;&gt;&lt;font style=&quot;font-size: 20px;&quot;&gt;虚拟机&lt;/font&gt;&lt;/span&gt;" style="rounded=1;whiteSpace=wrap;html=1;fontSize=18;" parent="1" vertex="1">
          <mxGeometry x="630" y="490" width="100" height="40" as="geometry" />
        </mxCell>
        <mxCell id="IRRv_QjYVV9mL1Gj15er-10" value="..." style="rounded=1;whiteSpace=wrap;html=1;fontSize=18;" parent="1" vertex="1">
          <mxGeometry x="750" y="490" width="30" height="40" as="geometry" />
        </mxCell>
        <mxCell id="IRRv_QjYVV9mL1Gj15er-11" value="" style="shape=singleArrow;direction=north;whiteSpace=wrap;html=1;fontSize=20;" parent="1" vertex="1">
          <mxGeometry x="90" y="440" width="60" height="40" as="geometry" />
        </mxCell>
        <mxCell id="IRRv_QjYVV9mL1Gj15er-13" value="" style="shape=singleArrow;direction=north;whiteSpace=wrap;html=1;fontSize=20;" parent="1" vertex="1">
          <mxGeometry x="290" y="440" width="60" height="40" as="geometry" />
        </mxCell>
        <mxCell id="IRRv_QjYVV9mL1Gj15er-14" value="" style="shape=singleArrow;direction=north;whiteSpace=wrap;html=1;fontSize=20;" parent="1" vertex="1">
          <mxGeometry x="490" y="440" width="60" height="40" as="geometry" />
        </mxCell>
        <mxCell id="IRRv_QjYVV9mL1Gj15er-15" value="" style="shape=singleArrow;direction=north;whiteSpace=wrap;html=1;fontSize=20;" parent="1" vertex="1">
          <mxGeometry x="690" y="440" width="60" height="40" as="geometry" />
        </mxCell>
        <mxCell id="IRRv_QjYVV9mL1Gj15er-16" value="数据层" style="text;html=1;align=center;verticalAlign=middle;resizable=0;points=[];autosize=1;strokeColor=none;fillColor=none;fontSize=20;" parent="1" vertex="1">
          <mxGeometry x="-46" y="360" width="80" height="40" as="geometry" />
        </mxCell>
        <mxCell id="IRRv_QjYVV9mL1Gj15er-17" value="" style="rounded=1;whiteSpace=wrap;html=1;fontSize=20;" parent="1" vertex="1">
          <mxGeometry x="69" y="320" width="690" height="120" as="geometry" />
        </mxCell>
        <mxCell id="IRRv_QjYVV9mL1Gj15er-18" value="" style="rounded=1;whiteSpace=wrap;html=1;fontSize=20;" parent="1" vertex="1">
          <mxGeometry x="90" y="340" width="290" height="80" as="geometry" />
        </mxCell>
        <mxCell id="IRRv_QjYVV9mL1Gj15er-20" value="" style="rounded=1;whiteSpace=wrap;html=1;fontSize=20;" parent="1" vertex="1">
          <mxGeometry x="450" y="340" width="290" height="80" as="geometry" />
        </mxCell>
        <mxCell id="IRRv_QjYVV9mL1Gj15er-21" value="" style="rounded=1;whiteSpace=wrap;html=1;fontSize=20;" parent="1" vertex="1">
          <mxGeometry x="140" y="350" width="230" height="60" as="geometry" />
        </mxCell>
        <mxCell id="IRRv_QjYVV9mL1Gj15er-34" value="" style="endArrow=none;html=1;rounded=0;fontSize=20;" parent="1" source="IRRv_QjYVV9mL1Gj15er-21" edge="1">
          <mxGeometry width="50" height="50" relative="1" as="geometry">
            <mxPoint x="470" y="460" as="sourcePoint" />
            <mxPoint x="250" y="380" as="targetPoint" />
          </mxGeometry>
        </mxCell>
        <mxCell id="IRRv_QjYVV9mL1Gj15er-35" value="&lt;font style=&quot;font-size: 16px;&quot;&gt;&lt;b style=&quot;font-size: 16px;&quot;&gt;脚本管理&lt;/b&gt;&lt;/font&gt;" style="text;html=1;align=center;verticalAlign=middle;resizable=0;points=[];autosize=1;strokeColor=none;fillColor=none;fontSize=16;labelBackgroundColor=#ffffff;" parent="1" vertex="1">
          <mxGeometry x="220" y="350" width="90" height="30" as="geometry" />
        </mxCell>
        <mxCell id="IRRv_QjYVV9mL1Gj15er-36" value="&lt;b style=&quot;border-color: var(--border-color); color: rgb(0, 0, 0); font-family: Helvetica; font-size: 16px; font-style: normal; font-variant-ligatures: normal; font-variant-caps: normal; letter-spacing: normal; orphans: 2; text-align: center; text-indent: 0px; text-transform: none; widows: 2; word-spacing: 0px; -webkit-text-stroke-width: 0px; background-color: rgb(255, 255, 255); text-decoration-thickness: initial; text-decoration-style: initial; text-decoration-color: initial;&quot;&gt;采集脚本&lt;/b&gt;" style="text;whiteSpace=wrap;html=1;fontSize=16;" parent="1" vertex="1">
          <mxGeometry x="170" y="380" width="70" height="40" as="geometry" />
        </mxCell>
        <mxCell id="IRRv_QjYVV9mL1Gj15er-37" value="&lt;b style=&quot;border-color: var(--border-color); color: rgb(0, 0, 0); font-family: Helvetica; font-size: 16px; font-style: normal; font-variant-ligatures: normal; font-variant-caps: normal; letter-spacing: normal; orphans: 2; text-align: center; text-indent: 0px; text-transform: none; widows: 2; word-spacing: 0px; -webkit-text-stroke-width: 0px; background-color: rgb(255, 255, 255); text-decoration-thickness: initial; text-decoration-style: initial; text-decoration-color: initial;&quot;&gt;比对脚本&lt;/b&gt;" style="text;whiteSpace=wrap;html=1;fontSize=16;" parent="1" vertex="1">
          <mxGeometry x="280" y="380" width="80" height="40" as="geometry" />
        </mxCell>
        <mxCell id="IRRv_QjYVV9mL1Gj15er-39" value="" style="rounded=1;whiteSpace=wrap;html=1;fontSize=20;" parent="1" vertex="1">
          <mxGeometry x="500" y="350" width="220" height="60" as="geometry" />
        </mxCell>
        <mxCell id="IRRv_QjYVV9mL1Gj15er-40" value="&lt;div style=&quot;text-align: center; font-size: 15px;&quot;&gt;&lt;span style=&quot;background-color: initial;&quot;&gt;&lt;font style=&quot;font-size: 15px;&quot;&gt;漏洞&lt;/font&gt;&lt;/span&gt;&lt;/div&gt;&lt;span style=&quot;color: rgb(0, 0, 0); font-family: Helvetica; font-style: normal; font-variant-ligatures: normal; font-variant-caps: normal; font-weight: 400; letter-spacing: normal; orphans: 2; text-align: center; text-indent: 0px; text-transform: none; widows: 2; word-spacing: 0px; -webkit-text-stroke-width: 0px; background-color: rgb(251, 251, 251); text-decoration-thickness: initial; text-decoration-style: initial; text-decoration-color: initial; float: none; display: inline !important; font-size: 15px;&quot;&gt;&lt;font style=&quot;font-size: 15px;&quot;&gt;采集&lt;/font&gt;&lt;/span&gt;" style="text;whiteSpace=wrap;html=1;fontSize=16;" parent="1" vertex="1">
          <mxGeometry x="470" y="340" width="10" height="80" as="geometry" />
        </mxCell>
        <mxCell id="IRRv_QjYVV9mL1Gj15er-41" value="" style="endArrow=none;html=1;rounded=0;fontSize=16;exitX=1;exitY=0.5;exitDx=0;exitDy=0;entryX=0;entryY=0.5;entryDx=0;entryDy=0;" parent="1" source="IRRv_QjYVV9mL1Gj15er-39" target="IRRv_QjYVV9mL1Gj15er-39" edge="1">
          <mxGeometry width="50" height="50" relative="1" as="geometry">
            <mxPoint x="460" y="420" as="sourcePoint" />
            <mxPoint x="400" y="160" as="targetPoint" />
          </mxGeometry>
        </mxCell>
        <mxCell id="IRRv_QjYVV9mL1Gj15er-44" value="&lt;div style=&quot;text-align: center; font-size: 15px;&quot;&gt;配置采集&lt;/div&gt;" style="text;whiteSpace=wrap;html=1;fontSize=16;" parent="1" vertex="1">
          <mxGeometry x="104" y="340" width="10" height="80" as="geometry" />
        </mxCell>
        <mxCell id="IRRv_QjYVV9mL1Gj15er-48" value="" style="endArrow=none;html=1;rounded=0;fontSize=15;entryX=1;entryY=0.5;entryDx=0;entryDy=0;exitX=0;exitY=0.5;exitDx=0;exitDy=0;" parent="1" source="IRRv_QjYVV9mL1Gj15er-21" target="IRRv_QjYVV9mL1Gj15er-21" edge="1">
          <mxGeometry width="50" height="50" relative="1" as="geometry">
            <mxPoint x="230" y="290" as="sourcePoint" />
            <mxPoint x="380" y="260" as="targetPoint" />
          </mxGeometry>
        </mxCell>
        <mxCell id="IRRv_QjYVV9mL1Gj15er-49" value="" style="endArrow=none;html=1;rounded=0;fontSize=15;entryX=0.5;entryY=1;entryDx=0;entryDy=0;" parent="1" target="IRRv_QjYVV9mL1Gj15er-21" edge="1">
          <mxGeometry width="50" height="50" relative="1" as="geometry">
            <mxPoint x="255" y="380" as="sourcePoint" />
            <mxPoint x="360" y="250" as="targetPoint" />
          </mxGeometry>
        </mxCell>
        <mxCell id="IRRv_QjYVV9mL1Gj15er-51" value="" style="endArrow=none;html=1;rounded=0;fontSize=15;entryX=0.5;entryY=1;entryDx=0;entryDy=0;" parent="1" target="IRRv_QjYVV9mL1Gj15er-39" edge="1">
          <mxGeometry width="50" height="50" relative="1" as="geometry">
            <mxPoint x="610" y="380" as="sourcePoint" />
            <mxPoint x="490" y="230" as="targetPoint" />
          </mxGeometry>
        </mxCell>
        <mxCell id="IRRv_QjYVV9mL1Gj15er-52" value="&lt;font style=&quot;font-size: 16px;&quot;&gt;&lt;b style=&quot;font-size: 16px;&quot;&gt;标准化组件&lt;/b&gt;&lt;/font&gt;" style="text;html=1;align=center;verticalAlign=middle;resizable=0;points=[];autosize=1;strokeColor=none;fillColor=none;fontSize=16;labelBackgroundColor=#ffffff;" parent="1" vertex="1">
          <mxGeometry x="560" y="350" width="100" height="30" as="geometry" />
        </mxCell>
        <mxCell id="IRRv_QjYVV9mL1Gj15er-53" value="&lt;b style=&quot;border-color: var(--border-color); color: rgb(0, 0, 0); font-family: Helvetica; font-size: 16px; font-style: normal; font-variant-ligatures: normal; font-variant-caps: normal; letter-spacing: normal; orphans: 2; text-align: center; text-indent: 0px; text-transform: none; widows: 2; word-spacing: 0px; -webkit-text-stroke-width: 0px; background-color: rgb(255, 255, 255); text-decoration-thickness: initial; text-decoration-style: initial; text-decoration-color: initial;&quot;&gt;Scanner&lt;/b&gt;" style="text;whiteSpace=wrap;html=1;fontSize=16;" parent="1" vertex="1">
          <mxGeometry x="630" y="380" width="70" height="30" as="geometry" />
        </mxCell>
        <mxCell id="IRRv_QjYVV9mL1Gj15er-54" value="&lt;b style=&quot;border-color: var(--border-color); color: rgb(0, 0, 0); font-family: Helvetica; font-size: 16px; font-style: normal; font-variant-ligatures: normal; font-variant-caps: normal; letter-spacing: normal; orphans: 2; text-align: center; text-indent: 0px; text-transform: none; widows: 2; word-spacing: 0px; -webkit-text-stroke-width: 0px; background-color: rgb(255, 255, 255); text-decoration-thickness: initial; text-decoration-style: initial; text-decoration-color: initial;&quot;&gt;Scanner&lt;/b&gt;" style="text;whiteSpace=wrap;html=1;fontSize=16;" parent="1" vertex="1">
          <mxGeometry x="525" y="380" width="70" height="30" as="geometry" />
        </mxCell>
        <mxCell id="IRRv_QjYVV9mL1Gj15er-60" value="" style="shape=link;html=1;rounded=0;fontSize=15;width=16;" parent="1" edge="1">
          <mxGeometry width="100" relative="1" as="geometry">
            <mxPoint x="80" y="279" as="sourcePoint" />
            <mxPoint x="770" y="279" as="targetPoint" />
            <Array as="points">
              <mxPoint x="430" y="279" />
            </Array>
          </mxGeometry>
        </mxCell>
        <mxCell id="IRRv_QjYVV9mL1Gj15er-61" value="" style="shape=singleArrow;direction=north;whiteSpace=wrap;html=1;fontSize=20;" parent="1" vertex="1">
          <mxGeometry x="220" y="290" width="60" height="30" as="geometry" />
        </mxCell>
        <mxCell id="IRRv_QjYVV9mL1Gj15er-62" value="" style="shape=singleArrow;direction=north;whiteSpace=wrap;html=1;fontSize=20;" parent="1" vertex="1">
          <mxGeometry x="580" y="290" width="60" height="30" as="geometry" />
        </mxCell>
        <mxCell id="IRRv_QjYVV9mL1Gj15er-63" value="" style="shape=singleArrow;direction=north;whiteSpace=wrap;html=1;fontSize=20;" parent="1" vertex="1">
          <mxGeometry x="370" y="240" width="60" height="30" as="geometry" />
        </mxCell>
        <mxCell id="IRRv_QjYVV9mL1Gj15er-69" value="" style="rounded=1;whiteSpace=wrap;html=1;labelBackgroundColor=#ffffff;fontSize=15;arcSize=17;fillColor=#f8cecc;strokeColor=#b85450;" parent="1" vertex="1">
          <mxGeometry x="171" y="920" width="800" height="100" as="geometry" />
        </mxCell>
        <mxCell id="IRRv_QjYVV9mL1Gj15er-71" value="&lt;font style=&quot;font-size: 18px;&quot;&gt;DB&lt;/font&gt;" style="text;html=1;align=center;verticalAlign=middle;resizable=0;points=[];autosize=1;strokeColor=none;fillColor=none;fontSize=15;labelBackgroundColor=#ffffff;" parent="1" vertex="1">
          <mxGeometry x="100.72" y="170" width="50" height="40" as="geometry" />
        </mxCell>
        <mxCell id="IRRv_QjYVV9mL1Gj15er-74" value="" style="aspect=fixed;perimeter=ellipsePerimeter;html=1;align=center;shadow=0;dashed=0;spacingTop=3;image;image=img/lib/active_directory/databases.svg;labelBackgroundColor=#ffffff;fontSize=15;" parent="1" vertex="1">
          <mxGeometry x="90" y="100" width="71.43" height="70" as="geometry" />
        </mxCell>
        <mxCell id="IRRv_QjYVV9mL1Gj15er-75" value="&lt;span&gt;SDP安全代理服务器&lt;/span&gt;" style="text;html=1;align=center;verticalAlign=middle;resizable=0;points=[];autosize=1;strokeColor=none;fillColor=none;fontSize=18;" parent="1" vertex="1">
          <mxGeometry x="295" y="20" width="190" height="40" as="geometry" />
        </mxCell>
        <mxCell id="IRRv_QjYVV9mL1Gj15er-76" value="" style="shape=flexArrow;endArrow=classic;startArrow=classic;html=1;rounded=0;fontSize=15;" parent="1" edge="1">
          <mxGeometry width="100" height="100" relative="1" as="geometry">
            <mxPoint x="170" y="140" as="sourcePoint" />
            <mxPoint x="240" y="140" as="targetPoint" />
            <Array as="points">
              <mxPoint x="200" y="140" />
            </Array>
          </mxGeometry>
        </mxCell>
        <mxCell id="IRRv_QjYVV9mL1Gj15er-77" value="基线库管理" style="rounded=1;whiteSpace=wrap;html=1;labelBackgroundColor=#ffffff;fontSize=18;" parent="1" vertex="1">
          <mxGeometry x="260" y="80" width="120" height="50" as="geometry" />
        </mxCell>
        <mxCell id="IRRv_QjYVV9mL1Gj15er-78" value="基线匹配" style="rounded=1;whiteSpace=wrap;html=1;labelBackgroundColor=#ffffff;fontSize=18;" parent="1" vertex="1">
          <mxGeometry x="405" y="80" width="120" height="50" as="geometry" />
        </mxCell>
        <mxCell id="IRRv_QjYVV9mL1Gj15er-79" value="脚本管理" style="rounded=1;whiteSpace=wrap;html=1;labelBackgroundColor=#ffffff;fontSize=18;" parent="1" vertex="1">
          <mxGeometry x="260" y="160" width="120" height="50" as="geometry" />
        </mxCell>
        <mxCell id="IRRv_QjYVV9mL1Gj15er-80" value="告警机制" style="rounded=1;whiteSpace=wrap;html=1;labelBackgroundColor=#ffffff;fontSize=18;" parent="1" vertex="1">
          <mxGeometry x="405" y="160" width="120" height="50" as="geometry" />
        </mxCell>
        <mxCell id="6lv0VeSdasBS07ZKoq6K-3" value="控制层" style="text;html=1;align=center;verticalAlign=middle;resizable=0;points=[];autosize=1;strokeColor=none;fillColor=none;fontSize=20;" parent="1" vertex="1">
          <mxGeometry x="-46" y="120" width="80" height="40" as="geometry" />
        </mxCell>
        <mxCell id="6lv0VeSdasBS07ZKoq6K-7" style="edgeStyle=orthogonalEdgeStyle;rounded=0;orthogonalLoop=1;jettySize=auto;html=1;entryX=0;entryY=0.5;entryDx=0;entryDy=0;" parent="1" source="6lv0VeSdasBS07ZKoq6K-4" target="6lv0VeSdasBS07ZKoq6K-6" edge="1">
          <mxGeometry relative="1" as="geometry" />
        </mxCell>
        <mxCell id="6lv0VeSdasBS07ZKoq6K-4" value="&lt;font style=&quot;font-size: 17px;&quot;&gt;安全环境检测&lt;/font&gt;" style="rounded=1;whiteSpace=wrap;html=1;" parent="1" vertex="1">
          <mxGeometry x="100" y="670" width="110" height="60" as="geometry" />
        </mxCell>
        <mxCell id="6lv0VeSdasBS07ZKoq6K-14" style="edgeStyle=orthogonalEdgeStyle;rounded=0;orthogonalLoop=1;jettySize=auto;html=1;entryX=0;entryY=0.5;entryDx=0;entryDy=0;fontSize=17;" parent="1" source="6lv0VeSdasBS07ZKoq6K-6" target="6lv0VeSdasBS07ZKoq6K-12" edge="1">
          <mxGeometry relative="1" as="geometry" />
        </mxCell>
        <mxCell id="6lv0VeSdasBS07ZKoq6K-15" style="edgeStyle=orthogonalEdgeStyle;rounded=0;orthogonalLoop=1;jettySize=auto;html=1;entryX=0;entryY=0.617;entryDx=0;entryDy=0;entryPerimeter=0;fontSize=17;" parent="1" source="6lv0VeSdasBS07ZKoq6K-6" target="6lv0VeSdasBS07ZKoq6K-13" edge="1">
          <mxGeometry relative="1" as="geometry" />
        </mxCell>
        <mxCell id="6lv0VeSdasBS07ZKoq6K-6" value="&lt;font style=&quot;font-size: 17px;&quot;&gt;基线匹配&lt;/font&gt;" style="rhombus;whiteSpace=wrap;html=1;" parent="1" vertex="1">
          <mxGeometry x="250" y="655" width="110" height="90" as="geometry" />
        </mxCell>
        <mxCell id="6lv0VeSdasBS07ZKoq6K-9" value="" style="endArrow=classic;html=1;rounded=0;" parent="1" edge="1">
          <mxGeometry width="50" height="50" relative="1" as="geometry">
            <mxPoint x="10" y="699.5" as="sourcePoint" />
            <mxPoint x="100" y="699.5" as="targetPoint" />
          </mxGeometry>
        </mxCell>
        <mxCell id="6lv0VeSdasBS07ZKoq6K-10" value="&lt;span style=&quot;font-size: 17px;&quot;&gt;通过&lt;/span&gt;" style="text;html=1;align=center;verticalAlign=middle;resizable=0;points=[];autosize=1;strokeColor=none;fillColor=none;" parent="1" vertex="1">
          <mxGeometry x="345" y="655" width="60" height="30" as="geometry" />
        </mxCell>
        <mxCell id="6lv0VeSdasBS07ZKoq6K-11" value="&lt;span style=&quot;&quot;&gt;访问主体接入&lt;/span&gt;" style="rounded=1;whiteSpace=wrap;html=1;fontSize=17;" parent="1" vertex="1">
          <mxGeometry x="-70" y="670" width="110" height="60" as="geometry" />
        </mxCell>
        <mxCell id="6lv0VeSdasBS07ZKoq6K-12" value="接入安全代理" style="rounded=1;whiteSpace=wrap;html=1;fontSize=17;" parent="1" vertex="1">
          <mxGeometry x="430" y="610" width="120" height="60" as="geometry" />
        </mxCell>
        <mxCell id="6lv0VeSdasBS07ZKoq6K-13" value="拒绝接入，事件写入日志" style="rounded=1;whiteSpace=wrap;html=1;fontSize=17;" parent="1" vertex="1">
          <mxGeometry x="430" y="730" width="120" height="60" as="geometry" />
        </mxCell>
        <mxCell id="6lv0VeSdasBS07ZKoq6K-16" value="&lt;span style=&quot;font-size: 17px;&quot;&gt;失败&lt;/span&gt;" style="text;html=1;align=center;verticalAlign=middle;resizable=0;points=[];autosize=1;strokeColor=none;fillColor=none;" parent="1" vertex="1">
          <mxGeometry x="345" y="730" width="60" height="30" as="geometry" />
        </mxCell>
        <mxCell id="ku3lEbieTSQeBnIbeFAv-3" value="" style="rounded=0;whiteSpace=wrap;html=1;" parent="1" vertex="1">
          <mxGeometry x="-310" y="-100" width="120" height="60" as="geometry" />
        </mxCell>
        <mxCell id="ku3lEbieTSQeBnIbeFAv-4" value="" style="rounded=0;whiteSpace=wrap;html=1;" parent="1" vertex="1">
          <mxGeometry x="840" y="810" width="120" height="60" as="geometry" />
        </mxCell>
        <mxCell id="ie682Kdt5vv1fs90nuIB-5" style="edgeStyle=orthogonalEdgeStyle;rounded=0;orthogonalLoop=1;jettySize=auto;html=1;exitX=0.5;exitY=1;exitDx=0;exitDy=0;entryX=0.5;entryY=0;entryDx=0;entryDy=0;" parent="1" source="ku3lEbieTSQeBnIbeFAv-20" target="ku3lEbieTSQeBnIbeFAv-21" edge="1">
          <mxGeometry relative="1" as="geometry" />
        </mxCell>
        <mxCell id="ku3lEbieTSQeBnIbeFAv-20" value="" style="rounded=1;whiteSpace=wrap;html=1;fontSize=20;" parent="1" vertex="1">
          <mxGeometry x="84" y="1242.75" width="290" height="80" as="geometry" />
        </mxCell>
        <mxCell id="ie682Kdt5vv1fs90nuIB-6" style="edgeStyle=orthogonalEdgeStyle;rounded=0;orthogonalLoop=1;jettySize=auto;html=1;exitX=0.5;exitY=1;exitDx=0;exitDy=0;entryX=0.5;entryY=0;entryDx=0;entryDy=0;" parent="1" source="ku3lEbieTSQeBnIbeFAv-21" target="ku3lEbieTSQeBnIbeFAv-48" edge="1">
          <mxGeometry relative="1" as="geometry" />
        </mxCell>
        <mxCell id="ku3lEbieTSQeBnIbeFAv-21" value="" style="rounded=1;whiteSpace=wrap;html=1;fontSize=20;" parent="1" vertex="1">
          <mxGeometry x="84" y="1370" width="290" height="80" as="geometry" />
        </mxCell>
        <mxCell id="ku3lEbieTSQeBnIbeFAv-22" value="" style="rounded=1;whiteSpace=wrap;html=1;fontSize=20;" parent="1" vertex="1">
          <mxGeometry x="131" y="1250" width="230" height="60" as="geometry" />
        </mxCell>
        <mxCell id="ku3lEbieTSQeBnIbeFAv-23" value="" style="endArrow=none;html=1;rounded=0;fontSize=20;" parent="1" source="ku3lEbieTSQeBnIbeFAv-22" edge="1">
          <mxGeometry width="50" height="50" relative="1" as="geometry">
            <mxPoint x="461" y="1360" as="sourcePoint" />
            <mxPoint x="241" y="1280" as="targetPoint" />
          </mxGeometry>
        </mxCell>
        <mxCell id="ku3lEbieTSQeBnIbeFAv-24" value="&lt;font style=&quot;font-size: 16px;&quot;&gt;&lt;b style=&quot;font-size: 16px;&quot;&gt;脚本管理&lt;/b&gt;&lt;/font&gt;" style="text;html=1;align=center;verticalAlign=middle;resizable=0;points=[];autosize=1;strokeColor=none;fillColor=none;fontSize=16;labelBackgroundColor=#ffffff;" parent="1" vertex="1">
          <mxGeometry x="201" y="1250" width="90" height="30" as="geometry" />
        </mxCell>
        <mxCell id="ku3lEbieTSQeBnIbeFAv-25" value="&lt;b style=&quot;border-color: var(--border-color); color: rgb(0, 0, 0); font-family: Helvetica; font-size: 16px; font-style: normal; font-variant-ligatures: normal; font-variant-caps: normal; letter-spacing: normal; orphans: 2; text-align: center; text-indent: 0px; text-transform: none; widows: 2; word-spacing: 0px; -webkit-text-stroke-width: 0px; background-color: rgb(255, 255, 255); text-decoration-thickness: initial; text-decoration-style: initial; text-decoration-color: initial;&quot;&gt;采集脚本&lt;/b&gt;" style="text;whiteSpace=wrap;html=1;fontSize=16;" parent="1" vertex="1">
          <mxGeometry x="161" y="1280" width="70" height="30" as="geometry" />
        </mxCell>
        <mxCell id="ku3lEbieTSQeBnIbeFAv-26" value="&lt;b style=&quot;border-color: var(--border-color); color: rgb(0, 0, 0); font-family: Helvetica; font-size: 16px; font-style: normal; font-variant-ligatures: normal; font-variant-caps: normal; letter-spacing: normal; orphans: 2; text-align: center; text-indent: 0px; text-transform: none; widows: 2; word-spacing: 0px; -webkit-text-stroke-width: 0px; background-color: rgb(255, 255, 255); text-decoration-thickness: initial; text-decoration-style: initial; text-decoration-color: initial;&quot;&gt;比对脚本&lt;/b&gt;" style="text;whiteSpace=wrap;html=1;fontSize=16;" parent="1" vertex="1">
          <mxGeometry x="271" y="1280" width="80" height="40" as="geometry" />
        </mxCell>
        <mxCell id="ku3lEbieTSQeBnIbeFAv-27" value="" style="rounded=1;whiteSpace=wrap;html=1;fontSize=20;" parent="1" vertex="1">
          <mxGeometry x="134" y="1380" width="220" height="60" as="geometry" />
        </mxCell>
        <mxCell id="ku3lEbieTSQeBnIbeFAv-28" value="&lt;div style=&quot;text-align: center; font-size: 15px;&quot;&gt;&lt;span style=&quot;background-color: initial;&quot;&gt;&lt;font style=&quot;font-size: 15px;&quot;&gt;漏洞&lt;/font&gt;&lt;/span&gt;&lt;/div&gt;&lt;span style=&quot;color: rgb(0, 0, 0); font-family: Helvetica; font-style: normal; font-variant-ligatures: normal; font-variant-caps: normal; font-weight: 400; letter-spacing: normal; orphans: 2; text-align: center; text-indent: 0px; text-transform: none; widows: 2; word-spacing: 0px; -webkit-text-stroke-width: 0px; background-color: rgb(251, 251, 251); text-decoration-thickness: initial; text-decoration-style: initial; text-decoration-color: initial; float: none; display: inline !important; font-size: 15px;&quot;&gt;&lt;font style=&quot;font-size: 15px;&quot;&gt;采集&lt;/font&gt;&lt;/span&gt;" style="text;whiteSpace=wrap;html=1;fontSize=16;" parent="1" vertex="1">
          <mxGeometry x="95" y="1370" width="10" height="80" as="geometry" />
        </mxCell>
        <mxCell id="ku3lEbieTSQeBnIbeFAv-29" value="" style="endArrow=none;html=1;rounded=0;fontSize=16;exitX=1;exitY=0.5;exitDx=0;exitDy=0;entryX=0;entryY=0.5;entryDx=0;entryDy=0;" parent="1" source="ku3lEbieTSQeBnIbeFAv-27" target="ku3lEbieTSQeBnIbeFAv-27" edge="1">
          <mxGeometry width="50" height="50" relative="1" as="geometry">
            <mxPoint x="94" y="1450" as="sourcePoint" />
            <mxPoint x="34" y="1190" as="targetPoint" />
          </mxGeometry>
        </mxCell>
        <mxCell id="ku3lEbieTSQeBnIbeFAv-30" value="&lt;div style=&quot;text-align: center; font-size: 15px;&quot;&gt;配置采集&lt;/div&gt;" style="text;whiteSpace=wrap;html=1;fontSize=16;" parent="1" vertex="1">
          <mxGeometry x="95" y="1240" width="10" height="80" as="geometry" />
        </mxCell>
        <mxCell id="ku3lEbieTSQeBnIbeFAv-31" value="" style="endArrow=none;html=1;rounded=0;fontSize=15;entryX=1;entryY=0.5;entryDx=0;entryDy=0;exitX=0;exitY=0.5;exitDx=0;exitDy=0;" parent="1" source="ku3lEbieTSQeBnIbeFAv-22" target="ku3lEbieTSQeBnIbeFAv-22" edge="1">
          <mxGeometry width="50" height="50" relative="1" as="geometry">
            <mxPoint x="221" y="1190" as="sourcePoint" />
            <mxPoint x="371" y="1160" as="targetPoint" />
          </mxGeometry>
        </mxCell>
        <mxCell id="ku3lEbieTSQeBnIbeFAv-32" value="" style="endArrow=none;html=1;rounded=0;fontSize=15;entryX=0.5;entryY=1;entryDx=0;entryDy=0;" parent="1" target="ku3lEbieTSQeBnIbeFAv-22" edge="1">
          <mxGeometry width="50" height="50" relative="1" as="geometry">
            <mxPoint x="246" y="1280" as="sourcePoint" />
            <mxPoint x="351" y="1150" as="targetPoint" />
          </mxGeometry>
        </mxCell>
        <mxCell id="ku3lEbieTSQeBnIbeFAv-33" value="" style="endArrow=none;html=1;rounded=0;fontSize=15;entryX=0.5;entryY=1;entryDx=0;entryDy=0;" parent="1" target="ku3lEbieTSQeBnIbeFAv-27" edge="1">
          <mxGeometry width="50" height="50" relative="1" as="geometry">
            <mxPoint x="244" y="1410" as="sourcePoint" />
            <mxPoint x="124" y="1260" as="targetPoint" />
          </mxGeometry>
        </mxCell>
        <mxCell id="ku3lEbieTSQeBnIbeFAv-34" value="&lt;font style=&quot;font-size: 16px;&quot;&gt;&lt;b style=&quot;font-size: 16px;&quot;&gt;标准化组件&lt;/b&gt;&lt;/font&gt;" style="text;html=1;align=center;verticalAlign=middle;resizable=0;points=[];autosize=1;strokeColor=none;fillColor=none;fontSize=16;labelBackgroundColor=#ffffff;" parent="1" vertex="1">
          <mxGeometry x="194" y="1380" width="100" height="30" as="geometry" />
        </mxCell>
        <mxCell id="ku3lEbieTSQeBnIbeFAv-35" value="&lt;b style=&quot;border-color: var(--border-color); color: rgb(0, 0, 0); font-family: Helvetica; font-size: 16px; font-style: normal; font-variant-ligatures: normal; font-variant-caps: normal; letter-spacing: normal; orphans: 2; text-align: center; text-indent: 0px; text-transform: none; widows: 2; word-spacing: 0px; -webkit-text-stroke-width: 0px; background-color: rgb(255, 255, 255); text-decoration-thickness: initial; text-decoration-style: initial; text-decoration-color: initial;&quot;&gt;Scanner&lt;/b&gt;" style="text;whiteSpace=wrap;html=1;fontSize=16;" parent="1" vertex="1">
          <mxGeometry x="264" y="1410" width="70" height="30" as="geometry" />
        </mxCell>
        <mxCell id="ku3lEbieTSQeBnIbeFAv-36" value="&lt;b style=&quot;border-color: var(--border-color); color: rgb(0, 0, 0); font-family: Helvetica; font-size: 16px; font-style: normal; font-variant-ligatures: normal; font-variant-caps: normal; letter-spacing: normal; orphans: 2; text-align: center; text-indent: 0px; text-transform: none; widows: 2; word-spacing: 0px; -webkit-text-stroke-width: 0px; background-color: rgb(255, 255, 255); text-decoration-thickness: initial; text-decoration-style: initial; text-decoration-color: initial;&quot;&gt;Scanner&lt;/b&gt;" style="text;whiteSpace=wrap;html=1;fontSize=16;" parent="1" vertex="1">
          <mxGeometry x="159" y="1410" width="70" height="30" as="geometry" />
        </mxCell>
        <mxCell id="ku3lEbieTSQeBnIbeFAv-38" value="" style="shape=singleArrow;direction=north;whiteSpace=wrap;html=1;fontSize=20;" parent="1" vertex="1">
          <mxGeometry x="359" y="1030" width="60" height="50" as="geometry" />
        </mxCell>
        <mxCell id="ku3lEbieTSQeBnIbeFAv-46" value="允许接入" style="rounded=1;whiteSpace=wrap;html=1;labelBackgroundColor=#ffffff;fontSize=18;" parent="1" vertex="1">
          <mxGeometry x="30" y="1600" width="120" height="50" as="geometry" />
        </mxCell>
        <mxCell id="ie682Kdt5vv1fs90nuIB-7" style="edgeStyle=orthogonalEdgeStyle;rounded=0;orthogonalLoop=1;jettySize=auto;html=1;exitX=0.5;exitY=1;exitDx=0;exitDy=0;" parent="1" source="ku3lEbieTSQeBnIbeFAv-48" edge="1">
          <mxGeometry relative="1" as="geometry">
            <mxPoint x="90" y="1600" as="targetPoint" />
          </mxGeometry>
        </mxCell>
        <mxCell id="ie682Kdt5vv1fs90nuIB-8" style="edgeStyle=orthogonalEdgeStyle;rounded=0;orthogonalLoop=1;jettySize=auto;html=1;exitX=0.5;exitY=1;exitDx=0;exitDy=0;" parent="1" source="ku3lEbieTSQeBnIbeFAv-48" edge="1">
          <mxGeometry relative="1" as="geometry">
            <mxPoint x="370" y="1600" as="targetPoint" />
          </mxGeometry>
        </mxCell>
        <mxCell id="ku3lEbieTSQeBnIbeFAv-48" value="基线评估" style="rounded=1;whiteSpace=wrap;html=1;labelBackgroundColor=#ffffff;fontSize=18;" parent="1" vertex="1">
          <mxGeometry x="89" y="1490" width="280" height="50" as="geometry" />
        </mxCell>
        <mxCell id="ku3lEbieTSQeBnIbeFAv-51" value="&lt;font style=&quot;font-size: 19px;&quot;&gt;基线&lt;br&gt;采集模块&lt;/font&gt;" style="rounded=0;whiteSpace=wrap;html=1;fillColor=#dae8fc;strokeColor=#6c8ebf;" parent="1" vertex="1">
          <mxGeometry x="-155" y="1198.25" width="85" height="74.5" as="geometry" />
        </mxCell>
        <mxCell id="ku3lEbieTSQeBnIbeFAv-55" value="数据上传" style="text;html=1;align=center;verticalAlign=middle;resizable=0;points=[];autosize=1;strokeColor=none;fillColor=none;fontSize=19;" parent="1" vertex="1">
          <mxGeometry x="399" y="1040" width="100" height="40" as="geometry" />
        </mxCell>
        <mxCell id="ku3lEbieTSQeBnIbeFAv-57" value="" style="rounded=0;whiteSpace=wrap;html=1;fontSize=19;" parent="1" vertex="1">
          <mxGeometry x="-310" y="820" width="120" height="60" as="geometry" />
        </mxCell>
        <mxCell id="ku3lEbieTSQeBnIbeFAv-58" value="" style="rounded=0;whiteSpace=wrap;html=1;fontSize=19;" parent="1" vertex="1">
          <mxGeometry x="870" y="1430" width="120" height="60" as="geometry" />
        </mxCell>
        <mxCell id="3CwpjtWneb0Z3o3eGVo3-2" value="&lt;font style=&quot;font-size: 19px;&quot;&gt;基线&lt;br&gt;评估模块&lt;/font&gt;" style="rounded=0;whiteSpace=wrap;html=1;fillColor=#dae8fc;strokeColor=#6c8ebf;" parent="1" vertex="1">
          <mxGeometry x="-46" y="970" width="85" height="74.5" as="geometry" />
        </mxCell>
        <mxCell id="ie682Kdt5vv1fs90nuIB-4" style="edgeStyle=orthogonalEdgeStyle;rounded=0;orthogonalLoop=1;jettySize=auto;html=1;exitX=0.5;exitY=1;exitDx=0;exitDy=0;entryX=0.5;entryY=0;entryDx=0;entryDy=0;" parent="1" source="ie682Kdt5vv1fs90nuIB-1" target="ku3lEbieTSQeBnIbeFAv-20" edge="1">
          <mxGeometry relative="1" as="geometry" />
        </mxCell>
        <mxCell id="ie682Kdt5vv1fs90nuIB-1" value="&lt;font style=&quot;font-size: 21px;&quot;&gt;客户端运行&lt;/font&gt;" style="rounded=1;whiteSpace=wrap;html=1;" parent="1" vertex="1">
          <mxGeometry x="139" y="1140" width="180" height="50" as="geometry" />
        </mxCell>
        <mxCell id="ie682Kdt5vv1fs90nuIB-2" value="" style="rounded=1;whiteSpace=wrap;html=1;" parent="1" vertex="1">
          <mxGeometry x="780" y="1045" width="830" height="240" as="geometry" />
        </mxCell>
        <mxCell id="ie682Kdt5vv1fs90nuIB-9" value="拒绝接入" style="rounded=1;whiteSpace=wrap;html=1;labelBackgroundColor=#ffffff;fontSize=18;" parent="1" vertex="1">
          <mxGeometry x="310" y="1600" width="120" height="50" as="geometry" />
        </mxCell>
        <mxCell id="ZJ9y7hW_AjsPXjeX3c6A-1" value="软件资产清单和安全配置/主机账号管理/&lt;br&gt;应用软件安全/漏洞检测/自定义检测内容&lt;b&gt;·····&lt;/b&gt;" style="ellipse;shape=cloud;whiteSpace=wrap;html=1;" vertex="1" parent="1">
          <mxGeometry x="-452.5" y="2150" width="365" height="130" as="geometry" />
        </mxCell>
        <mxCell id="ZJ9y7hW_AjsPXjeX3c6A-2" value="" style="rounded=0;whiteSpace=wrap;html=1;dashed=1;" vertex="1" parent="1">
          <mxGeometry x="-435" y="2290" width="330" height="160" as="geometry" />
        </mxCell>
        <mxCell id="ZJ9y7hW_AjsPXjeX3c6A-17" style="edgeStyle=orthogonalEdgeStyle;rounded=0;orthogonalLoop=1;jettySize=auto;html=1;exitX=0.5;exitY=1;exitDx=0;exitDy=0;" edge="1" parent="1" source="ZJ9y7hW_AjsPXjeX3c6A-3" target="ZJ9y7hW_AjsPXjeX3c6A-4">
          <mxGeometry relative="1" as="geometry" />
        </mxCell>
        <mxCell id="ZJ9y7hW_AjsPXjeX3c6A-3" value="&lt;font style=&quot;font-size: 16px;&quot;&gt;安全基线内容管理&lt;/font&gt;" style="shape=process;whiteSpace=wrap;html=1;backgroundOutline=1;" vertex="1" parent="1">
          <mxGeometry x="-355" y="2320" width="170" height="50" as="geometry" />
        </mxCell>
        <mxCell id="ZJ9y7hW_AjsPXjeX3c6A-18" style="edgeStyle=orthogonalEdgeStyle;rounded=0;orthogonalLoop=1;jettySize=auto;html=1;exitX=0.5;exitY=1;exitDx=0;exitDy=0;" edge="1" parent="1" source="ZJ9y7hW_AjsPXjeX3c6A-4">
          <mxGeometry relative="1" as="geometry">
            <mxPoint x="-270" y="2480" as="targetPoint" />
          </mxGeometry>
        </mxCell>
        <mxCell id="ZJ9y7hW_AjsPXjeX3c6A-4" value="&lt;font style=&quot;font-size: 16px;&quot;&gt;终端控制&lt;/font&gt;" style="shape=process;whiteSpace=wrap;html=1;backgroundOutline=1;" vertex="1" parent="1">
          <mxGeometry x="-355" y="2390" width="170" height="50" as="geometry" />
        </mxCell>
        <mxCell id="ZJ9y7hW_AjsPXjeX3c6A-5" value="" style="rounded=0;whiteSpace=wrap;html=1;dashed=1;" vertex="1" parent="1">
          <mxGeometry x="-435" y="2500" width="150" height="260" as="geometry" />
        </mxCell>
        <mxCell id="ZJ9y7hW_AjsPXjeX3c6A-7" value="" style="rounded=0;whiteSpace=wrap;html=1;dashed=1;" vertex="1" parent="1">
          <mxGeometry x="-255" y="2500" width="150" height="260" as="geometry" />
        </mxCell>
        <mxCell id="ZJ9y7hW_AjsPXjeX3c6A-8" value="&lt;font style=&quot;font-size: 16px;&quot;&gt;SDP Agent&lt;/font&gt;" style="shape=process;whiteSpace=wrap;html=1;backgroundOutline=1;" vertex="1" parent="1">
          <mxGeometry x="-420" y="2530" width="120" height="40" as="geometry" />
        </mxCell>
        <mxCell id="ZJ9y7hW_AjsPXjeX3c6A-9" value="&lt;font style=&quot;font-size: 16px;&quot;&gt;Linux Probe&lt;/font&gt;" style="shape=process;whiteSpace=wrap;html=1;backgroundOutline=1;" vertex="1" parent="1">
          <mxGeometry x="-420" y="2610" width="120" height="40" as="geometry" />
        </mxCell>
        <mxCell id="ZJ9y7hW_AjsPXjeX3c6A-10" value="&lt;font style=&quot;font-size: 16px;&quot;&gt;SDP Agent&lt;/font&gt;" style="shape=process;whiteSpace=wrap;html=1;backgroundOutline=1;" vertex="1" parent="1">
          <mxGeometry x="-240" y="2530" width="120" height="40" as="geometry" />
        </mxCell>
        <mxCell id="ZJ9y7hW_AjsPXjeX3c6A-11" value="&lt;font style=&quot;font-size: 16px;&quot;&gt;Win Probe&lt;/font&gt;" style="shape=process;whiteSpace=wrap;html=1;backgroundOutline=1;" vertex="1" parent="1">
          <mxGeometry x="-240" y="2610" width="120" height="40" as="geometry" />
        </mxCell>
        <mxCell id="ZJ9y7hW_AjsPXjeX3c6A-12" value="" style="image;aspect=fixed;perimeter=ellipsePerimeter;html=1;align=center;shadow=0;dashed=0;spacingTop=3;image=img/lib/active_directory/laptop_client.svg;" vertex="1" parent="1">
          <mxGeometry x="165" y="2636" width="45" height="50" as="geometry" />
        </mxCell>
        <mxCell id="ZJ9y7hW_AjsPXjeX3c6A-13" value="" style="image;sketch=0;aspect=fixed;html=1;points=[];align=center;fontSize=12;image=img/lib/mscae/VM_Linux.svg;" vertex="1" parent="1">
          <mxGeometry x="-385" y="2680" width="50" height="46" as="geometry" />
        </mxCell>
        <mxCell id="ZJ9y7hW_AjsPXjeX3c6A-14" value="" style="image;sketch=0;aspect=fixed;html=1;points=[];align=center;fontSize=12;image=img/lib/mscae/VirtualMachineWindows.svg;" vertex="1" parent="1">
          <mxGeometry x="-205" y="2680" width="50" height="46" as="geometry" />
        </mxCell>
        <mxCell id="ZJ9y7hW_AjsPXjeX3c6A-15" value="CentOS" style="text;html=1;align=center;verticalAlign=middle;resizable=0;points=[];autosize=1;strokeColor=none;fillColor=none;" vertex="1" parent="1">
          <mxGeometry x="-395" y="2730" width="70" height="30" as="geometry" />
        </mxCell>
        <mxCell id="ZJ9y7hW_AjsPXjeX3c6A-16" value="Windows 10" style="text;html=1;align=center;verticalAlign=middle;resizable=0;points=[];autosize=1;strokeColor=none;fillColor=none;" vertex="1" parent="1">
          <mxGeometry x="-225" y="2730" width="90" height="30" as="geometry" />
        </mxCell>
        <mxCell id="ZJ9y7hW_AjsPXjeX3c6A-19" value="" style="endArrow=classic;startArrow=classic;html=1;rounded=0;entryX=0.5;entryY=0;entryDx=0;entryDy=0;exitX=0.5;exitY=0;exitDx=0;exitDy=0;" edge="1" parent="1" source="ZJ9y7hW_AjsPXjeX3c6A-8" target="ZJ9y7hW_AjsPXjeX3c6A-10">
          <mxGeometry width="50" height="50" relative="1" as="geometry">
            <mxPoint x="-650" y="2590" as="sourcePoint" />
            <mxPoint x="-600" y="2540" as="targetPoint" />
            <Array as="points">
              <mxPoint x="-360" y="2480" />
              <mxPoint x="-180" y="2480" />
            </Array>
          </mxGeometry>
        </mxCell>
        <mxCell id="ZJ9y7hW_AjsPXjeX3c6A-21" value="" style="endArrow=classic;startArrow=classic;html=1;rounded=0;entryX=0.5;entryY=1;entryDx=0;entryDy=0;" edge="1" parent="1" source="ZJ9y7hW_AjsPXjeX3c6A-13" target="ZJ9y7hW_AjsPXjeX3c6A-9">
          <mxGeometry width="50" height="50" relative="1" as="geometry">
            <mxPoint x="-670" y="2770" as="sourcePoint" />
            <mxPoint x="-620" y="2720" as="targetPoint" />
          </mxGeometry>
        </mxCell>
        <mxCell id="ZJ9y7hW_AjsPXjeX3c6A-22" value="" style="endArrow=classic;startArrow=classic;html=1;rounded=0;entryX=0.5;entryY=1;entryDx=0;entryDy=0;" edge="1" parent="1" source="ZJ9y7hW_AjsPXjeX3c6A-14" target="ZJ9y7hW_AjsPXjeX3c6A-11">
          <mxGeometry width="50" height="50" relative="1" as="geometry">
            <mxPoint x="-590" y="2780" as="sourcePoint" />
            <mxPoint x="-540" y="2730" as="targetPoint" />
          </mxGeometry>
        </mxCell>
        <mxCell id="ZJ9y7hW_AjsPXjeX3c6A-26" value="" style="endArrow=classic;html=1;rounded=0;exitX=0.392;exitY=1;exitDx=0;exitDy=0;exitPerimeter=0;entryX=0.392;entryY=0;entryDx=0;entryDy=0;entryPerimeter=0;" edge="1" parent="1" source="ZJ9y7hW_AjsPXjeX3c6A-8" target="ZJ9y7hW_AjsPXjeX3c6A-9">
          <mxGeometry width="50" height="50" relative="1" as="geometry">
            <mxPoint x="-610" y="2730" as="sourcePoint" />
            <mxPoint x="-560" y="2680" as="targetPoint" />
          </mxGeometry>
        </mxCell>
        <mxCell id="ZJ9y7hW_AjsPXjeX3c6A-28" value="&lt;font style=&quot;font-size: 11px;&quot;&gt;终端控制命令&lt;/font&gt;" style="text;html=1;align=center;verticalAlign=middle;resizable=0;points=[];autosize=1;strokeColor=none;fillColor=none;" vertex="1" parent="1">
          <mxGeometry x="-280" y="2450" width="100" height="30" as="geometry" />
        </mxCell>
        <mxCell id="ZJ9y7hW_AjsPXjeX3c6A-30" value="" style="endArrow=classic;html=1;rounded=0;exitX=0.658;exitY=-0.025;exitDx=0;exitDy=0;exitPerimeter=0;entryX=0.658;entryY=1.025;entryDx=0;entryDy=0;entryPerimeter=0;" edge="1" parent="1" source="ZJ9y7hW_AjsPXjeX3c6A-9" target="ZJ9y7hW_AjsPXjeX3c6A-8">
          <mxGeometry width="50" height="50" relative="1" as="geometry">
            <mxPoint x="-560" y="2780" as="sourcePoint" />
            <mxPoint x="-510" y="2730" as="targetPoint" />
          </mxGeometry>
        </mxCell>
        <mxCell id="ZJ9y7hW_AjsPXjeX3c6A-31" value="Report" style="text;html=1;align=center;verticalAlign=middle;resizable=0;points=[];autosize=1;strokeColor=none;fillColor=none;" vertex="1" parent="1">
          <mxGeometry x="-345" y="2570" width="60" height="30" as="geometry" />
        </mxCell>
        <mxCell id="ZJ9y7hW_AjsPXjeX3c6A-32" value="Execute" style="text;html=1;align=center;verticalAlign=middle;resizable=0;points=[];autosize=1;strokeColor=none;fillColor=none;" vertex="1" parent="1">
          <mxGeometry x="-435" y="2570" width="70" height="30" as="geometry" />
        </mxCell>
        <mxCell id="ZJ9y7hW_AjsPXjeX3c6A-33" value="" style="endArrow=classic;html=1;rounded=0;exitX=0.417;exitY=0.975;exitDx=0;exitDy=0;exitPerimeter=0;entryX=0.417;entryY=0.025;entryDx=0;entryDy=0;entryPerimeter=0;" edge="1" parent="1" source="ZJ9y7hW_AjsPXjeX3c6A-10" target="ZJ9y7hW_AjsPXjeX3c6A-11">
          <mxGeometry width="50" height="50" relative="1" as="geometry">
            <mxPoint x="-590" y="2780" as="sourcePoint" />
            <mxPoint x="-540" y="2730" as="targetPoint" />
          </mxGeometry>
        </mxCell>
        <mxCell id="ZJ9y7hW_AjsPXjeX3c6A-34" value="Execute" style="text;html=1;align=center;verticalAlign=middle;resizable=0;points=[];autosize=1;strokeColor=none;fillColor=none;" vertex="1" parent="1">
          <mxGeometry x="-250" y="2570" width="70" height="30" as="geometry" />
        </mxCell>
        <mxCell id="ZJ9y7hW_AjsPXjeX3c6A-35" value="" style="endArrow=classic;html=1;rounded=0;exitX=0.667;exitY=0.025;exitDx=0;exitDy=0;exitPerimeter=0;entryX=0.675;entryY=0.975;entryDx=0;entryDy=0;entryPerimeter=0;" edge="1" parent="1" source="ZJ9y7hW_AjsPXjeX3c6A-11" target="ZJ9y7hW_AjsPXjeX3c6A-10">
          <mxGeometry width="50" height="50" relative="1" as="geometry">
            <mxPoint x="-550" y="2800" as="sourcePoint" />
            <mxPoint x="-500" y="2750" as="targetPoint" />
          </mxGeometry>
        </mxCell>
        <mxCell id="ZJ9y7hW_AjsPXjeX3c6A-36" value="Report" style="text;html=1;align=center;verticalAlign=middle;resizable=0;points=[];autosize=1;strokeColor=none;fillColor=none;" vertex="1" parent="1">
          <mxGeometry x="-165" y="2570" width="60" height="30" as="geometry" />
        </mxCell>
        <mxCell id="ZJ9y7hW_AjsPXjeX3c6A-38" value="" style="endArrow=classic;html=1;rounded=0;entryX=0.5;entryY=0;entryDx=0;entryDy=0;exitX=0.5;exitY=0.923;exitDx=0;exitDy=0;exitPerimeter=0;" edge="1" parent="1" source="ZJ9y7hW_AjsPXjeX3c6A-1" target="ZJ9y7hW_AjsPXjeX3c6A-3">
          <mxGeometry width="50" height="50" relative="1" as="geometry">
            <mxPoint x="-270" y="2280" as="sourcePoint" />
            <mxPoint x="-520" y="2470" as="targetPoint" />
          </mxGeometry>
        </mxCell>
        <mxCell id="ZJ9y7hW_AjsPXjeX3c6A-39" value="&lt;font style=&quot;font-size: 16px;&quot;&gt;安全内容检测代理&lt;/font&gt;" style="text;html=1;align=center;verticalAlign=middle;resizable=0;points=[];autosize=1;strokeColor=none;fillColor=none;" vertex="1" parent="1">
          <mxGeometry x="-255" y="2290" width="150" height="30" as="geometry" />
        </mxCell>
        <mxCell id="ZJ9y7hW_AjsPXjeX3c6A-40" value="&lt;font style=&quot;font-size: 14px;&quot;&gt;终端2&lt;/font&gt;" style="text;html=1;align=center;verticalAlign=middle;resizable=0;points=[];autosize=1;strokeColor=none;fillColor=none;" vertex="1" parent="1">
          <mxGeometry x="-255" y="2500" width="60" height="30" as="geometry" />
        </mxCell>
        <mxCell id="ZJ9y7hW_AjsPXjeX3c6A-41" value="&lt;font style=&quot;font-size: 14px;&quot;&gt;终端1&lt;/font&gt;" style="text;html=1;align=center;verticalAlign=middle;resizable=0;points=[];autosize=1;strokeColor=none;fillColor=none;" vertex="1" parent="1">
          <mxGeometry x="-435" y="2500" width="60" height="30" as="geometry" />
        </mxCell>
      </root>
    </mxGraphModel>
  </diagram>
</mxfile>
